<?xml version="1.0" standalone="no"?>
<!DOCTYPE svg PUBLIC "-//W3C//DTD SVG 20010904//EN"
 "http://www.w3.org/TR/2001/REC-SVG-20010904/DTD/svg10.dtd">
<svg version="1.0" xmlns="http://www.w3.org/2000/svg"
 width="360.000000pt" height="360.000000pt" viewBox="0 0 360.000000 360.000000"
 preserveAspectRatio="xMidYMid meet">

<g transform="translate(0.000000,360.000000) scale(0.100000,-0.100000)"
fill="#000000" stroke="none">
<path d="M1032 3302 c-35 -32 -42 -45 -42 -76 0 -20 7 -50 15 -66 19 -36 3
-50 -27 -23 -21 18 -21 18 -14 -22 9 -47 9 -52 0 -87 -4 -20 0 -35 16 -55 16
-20 18 -29 8 -32 -7 -2 -20 -10 -29 -17 -13 -12 -22 -12 -55 -1 -39 14 -39 14
-39 68 0 41 -6 62 -25 89 -14 19 -25 36 -26 38 -1 1 -24 -19 -52 -45 -30 -29
-55 -63 -62 -86 -13 -41 -39 -54 -91 -43 -27 5 -30 3 -24 -14 5 -17 2 -20 -24
-20 -40 0 -39 -11 3 -36 34 -19 34 -20 17 -43 -17 -22 -25 -24 -99 -22 -44 1
-83 -3 -86 -8 -10 -15 8 -21 79 -28 64 -6 66 -7 60 -31 -22 -89 -12 -119 50
-149 33 -16 34 -15 85 17 l51 33 27 -20 c23 -17 27 -28 30 -82 3 -58 4 -62 24
-55 18 5 15 -2 -16 -39 -36 -44 -36 -45 -14 -51 13 -3 46 -6 74 -6 l51 0 7
-76 c4 -41 11 -87 17 -101 6 -18 6 -37 -2 -60 -9 -28 -8 -43 5 -78 9 -23 26
-51 36 -60 11 -10 20 -23 20 -30 0 -7 -27 -38 -60 -69 -52 -50 -64 -57 -87
-51 -26 6 -26 6 -10 -18 15 -23 15 -28 0 -65 -19 -51 -11 -101 23 -142 29 -34
50 -41 34 -11 -13 25 -13 91 0 91 6 0 10 -11 10 -24 0 -32 36 -75 77 -93 40
-16 88 -10 123 17 l25 20 -32 0 c-44 0 -63 23 -62 73 1 41 1 41 12 15 14 -35
27 -36 27 -3 0 24 25 85 35 85 2 0 1 -15 -2 -33 -4 -27 2 -40 36 -82 23 -28
46 -68 52 -90 6 -22 23 -51 39 -65 15 -14 31 -38 34 -55 l7 -30 -31 37 c-35
43 -74 72 -109 83 l-25 8 27 -33 c33 -38 30 -47 -10 -27 -15 8 -38 18 -50 21
-22 7 -22 6 -6 -24 20 -42 9 -49 -24 -16 -29 29 -42 21 -23 -13 17 -32 -2 -25
-32 11 l-28 33 6 -32 c4 -18 4 -33 0 -33 -3 0 -16 15 -27 33 l-20 32 3 -43 4
-43 -36 6 c-31 5 -33 4 -18 -8 20 -15 14 -27 -13 -27 -19 0 -198 -82 -199 -91
0 -3 491 -7 1091 -8 600 -1 1089 2 1086 6 -3 5 -46 22 -96 38 -72 23 -88 31
-80 42 9 10 2 13 -36 13 -52 0 -49 -8 -28 77 l6 27 -34 -22 c-19 -11 -47 -26
-63 -32 -24 -9 -27 -8 -22 5 7 20 2 19 -84 -10 -40 -14 -76 -25 -79 -25 -3 0
13 18 34 40 44 45 41 49 -16 19 -51 -25 -60 -18 -29 23 l23 31 -48 -26 c-26
-15 -50 -27 -52 -27 -3 0 7 21 22 46 28 48 24 49 -32 8 -17 -13 -34 -24 -37
-24 -2 0 0 16 6 36 5 20 8 38 5 40 -2 2 -22 -12 -45 -31 -41 -36 -112 -72
-112 -58 0 5 44 54 98 109 l98 101 51 -48 c55 -52 82 -64 63 -29 -13 24 -12
24 33 5 40 -16 123 -20 131 -6 3 5 -6 12 -22 16 l-27 7 37 19 c35 18 68 55 81
92 8 20 0 21 -33 2 -32 -18 -46 -19 -31 -2 6 8 18 30 26 51 l16 38 -33 -25
c-36 -27 -78 -43 -78 -30 1 4 7 19 15 33 22 38 18 43 -14 21 -34 -24 -91 -28
-91 -7 0 8 29 38 65 66 63 50 131 80 182 80 35 0 97 34 137 76 37 38 44 54 25
54 -7 0 -29 16 -49 36 l-38 37 20 33 c34 57 24 63 -99 57 -200 -10 -184 -12
-247 35 -76 58 -74 74 16 122 56 30 98 26 134 -11 69 -72 111 -70 145 7 11 24
25 44 32 44 7 0 61 -5 120 -12 85 -9 110 -9 120 1 21 21 -17 38 -106 45 -118
10 -123 13 -141 57 -22 53 -21 57 15 61 l31 3 -29 40 -29 39 23 56 c12 30 23
71 23 91 0 25 9 45 30 69 36 41 38 83 3 88 -14 2 -23 -3 -28 -18 -6 -18 -13
-21 -48 -18 -41 3 -42 4 -39 37 l4 34 -40 -6 c-34 -4 -41 -2 -45 14 -8 30 -45
24 -65 -11 -9 -16 -21 -30 -26 -30 -4 0 0 -12 9 -27 14 -20 15 -28 5 -31 -32
-11 -73 -62 -90 -112 l-19 -55 -74 -3 c-89 -3 -107 9 -87 59 7 17 24 37 37 46
37 25 28 36 -24 29 -44 -6 -47 -5 -29 9 11 8 28 15 39 15 10 0 17 5 15 13 -4
12 -58 52 -80 59 -7 3 -5 15 6 35 23 45 21 47 -18 24 -44 -27 -46 -27 -46 11
l0 32 -27 -32 c-38 -43 -53 -44 -68 -2 -11 30 -14 32 -20 15 -22 -64 -25 -67
-53 -60 -31 7 -82 52 -82 72 0 17 -20 17 -20 1 -1 -7 -9 3 -20 22 -15 26 -19
30 -20 15 0 -11 4 -36 10 -54 5 -19 8 -36 6 -39 -5 -5 -54 25 -83 52 -27 23
-28 17 -6 -32 9 -20 17 -41 18 -47 0 -5 9 -22 19 -37 17 -26 17 -30 1 -80 -10
-29 -24 -61 -33 -71 -8 -9 -13 -20 -10 -23 4 -3 -2 -28 -12 -56 l-18 -51 -93
2 c-139 3 -156 7 -175 47 -9 19 -30 46 -47 60 l-30 25 24 27 c14 15 33 37 44
50 l19 23 -45 -7 c-41 -6 -43 -5 -24 10 23 18 9 21 -29 6 -31 -11 -31 -14 -6
35 11 22 20 48 20 59 0 17 -6 14 -31 -17 -36 -43 -55 -49 -36 -9 23 45 28 82
17 118 -13 39 -30 45 -30 12 0 -13 -12 -48 -26 -78 l-26 -55 -19 24 c-11 13
-19 39 -19 58 0 27 -3 34 -15 29 -11 -4 -19 9 -31 52 -23 83 -26 91 -31 70 -3
-10 -9 -18 -14 -18 -8 0 -5 29 7 68 5 18 1 16 -44 -26z m-202 -278 c0 -28 -2
-28 -47 -12 -40 15 -41 19 -5 39 32 19 52 8 52 -27z m262 34 c19 -15 34 -58
20 -58 -5 0 -15 7 -22 15 -19 23 -48 18 -64 -12 l-15 -28 -1 32 c0 52 44 80
82 51z m842 -59 c18 -44 21 -134 6 -144 -6 -4 -10 6 -10 23 0 43 -11 92 -21
92 -5 0 -9 -8 -9 -17 0 -9 -16 -45 -35 -81 -20 -36 -33 -72 -30 -81 4 -13 25
-21 75 -30 39 -7 72 -17 76 -22 7 -13 -30 -11 -105 5 -65 14 -85 29 -75 56 15
38 10 45 -34 45 -23 0 -42 1 -42 3 0 20 63 133 79 141 27 15 27 7 -3 -32 -14
-18 -27 -44 -31 -58 -6 -24 -3 -27 27 -32 18 -2 36 -3 39 -1 3 1 14 28 24 59
22 62 15 85 -26 96 -23 6 -23 6 6 13 17 4 35 9 40 10 20 6 34 -7 49 -45z
m-744 -104 c0 -22 7 -49 15 -59 8 -11 15 -24 15 -30 0 -6 -8 1 -17 14 -9 14
-18 27 -20 30 -2 2 -9 -2 -14 -10 -8 -11 -9 -8 -4 13 3 17 1 35 -6 43 -15 18
-29 18 -29 -1 0 -17 -9 -19 -29 -6 -18 12 -7 41 15 41 10 0 26 -7 36 -17 17
-15 18 -13 19 48 l2 64 8 -45 c4 -25 8 -63 9 -85z m1388 43 c4 -37 -14 -35
-33 3 -16 30 -16 31 7 27 17 -2 24 -11 26 -30z m-1787 12 c10 -6 19 -18 19
-27 0 -13 -3 -14 -12 -5 -7 7 -20 12 -30 12 -10 0 -18 7 -18 15 0 18 14 19 41
5z m1707 -23 c3 -15 -1 -17 -25 -11 -35 8 -37 10 -28 24 10 17 49 8 53 -13z
m-58 -36 c0 -5 -9 -11 -20 -14 -22 -6 -28 8 -7 16 19 8 27 8 27 -2z m-1766
-30 c8 -13 -57 -81 -78 -81 -14 0 -15 3 -5 23 27 52 69 81 83 58z m2000 -13
c-9 -31 -24 -49 -35 -42 -15 9 -10 42 9 53 27 16 34 13 26 -11z m-54 -71 c0
-15 -3 -15 -20 -5 -24 16 -32 35 -24 61 6 18 8 17 25 -9 10 -16 19 -37 19 -47z
m-1705 27 c19 -46 19 -44 -10 -44 -14 0 -25 5 -25 11 0 8 -20 10 -69 5 -83 -8
-101 6 -28 23 29 7 63 18 77 26 35 20 38 19 55 -21z m833 -20 c20 -15 8 -44
-18 -44 -27 0 -34 19 -19 56 8 20 13 25 17 14 3 -8 12 -20 20 -26z m504 6 c72
-20 99 -98 62 -176 -48 -102 -195 -198 -321 -211 -57 -5 -65 -4 -98 21 -30 23
-35 33 -35 68 0 53 64 168 93 168 6 0 3 -8 -6 -18 -31 -34 -67 -113 -67 -146
0 -47 29 -70 88 -68 91 2 215 63 286 142 131 145 5 267 -184 177 -30 -14 -56
-24 -58 -22 -7 7 50 39 102 57 59 20 87 22 138 8z m265 -14 c13 -13 -90 -96
-120 -96 -3 0 -7 15 -10 33 -3 17 -8 40 -12 49 -5 12 0 18 17 21 30 7 116 2
125 -7z m-304 -27 c12 -7 25 -17 29 -23 13 -19 9 -60 -8 -84 -19 -27 -49 -31
-36 -4 10 18 6 42 -7 42 -4 0 -7 -10 -8 -21 -3 -31 -10 -34 -31 -16 -10 10
-24 17 -32 17 -10 0 -10 3 0 15 7 8 10 21 7 29 -4 9 1 17 11 20 9 3 0 3 -20 0
-45 -6 -48 0 -10 20 33 18 76 20 105 5z m-1608 -19 c-28 -12 -47 -12 -40 0 3
6 18 10 33 9 24 0 25 -1 7 -9z m225 0 c0 -18 -47 -40 -106 -51 -32 -6 -69 -13
-81 -15 -17 -3 -23 -11 -23 -29 0 -15 -6 -25 -14 -25 -36 0 -21 74 18 87 12 3
35 6 51 5 17 -1 50 7 75 17 51 22 80 25 80 11z m245 -1 c5 -7 -8 -8 -41 -3
-64 9 -68 14 -11 14 25 0 49 -5 52 -11z m-109 -26 c17 -17 15 -18 -39 -24 -31
-4 -64 -12 -72 -19 -18 -15 -30 -7 -21 15 7 18 61 44 93 45 12 0 29 -8 39 -17z
m609 -9 c116 -9 214 -21 219 -25 14 -13 -84 -10 -283 9 -111 11 -176 21 -178
29 -3 7 3 10 14 8 10 -2 113 -12 228 -21z m380 5 c45 -6 32 -7 -54 -3 -62 2
-121 8 -129 13 -17 10 81 4 183 -10z m113 -35 c23 -7 23 -7 -7 -25 -17 -10
-31 -26 -31 -35 0 -13 5 -12 29 5 37 26 63 27 86 1 46 -50 -29 -116 -119 -104
-46 6 -48 5 -41 -15 5 -18 2 -21 -19 -21 -14 0 -28 5 -31 10 -3 6 1 10 10 10
10 0 15 7 13 18 -2 14 6 18 49 20 43 2 58 9 83 34 17 17 28 33 25 36 -3 3 -20
-9 -38 -26 -40 -39 -54 -40 -90 -7 -31 29 -34 40 -12 49 8 3 15 11 15 19 0 31
31 43 78 31z m-573 -34 c18 -1 18 -2 3 -11 -10 -5 -20 -26 -24 -47 -13 -71
-43 -95 -44 -34 -1 15 -7 44 -15 66 l-13 38 36 -6 c20 -3 46 -6 57 -6z m-531
-21 c-3 -5 4 -9 15 -9 12 0 21 -4 21 -10 0 -5 -6 -10 -13 -10 -7 0 -32 -16
-54 -35 -23 -19 -44 -35 -46 -35 -3 0 -1 15 4 32 5 18 9 35 9 37 0 2 -13 1
-30 -2 -23 -5 -28 -3 -23 9 9 23 50 40 88 36 19 -2 32 -8 29 -13z m753 1 c44
0 37 -10 -47 -70 l-61 -42 7 29 c15 60 35 95 50 89 9 -3 32 -6 51 -6z m917
-26 c9 -22 8 -24 -9 -24 -8 0 -15 9 -15 20 0 24 15 27 24 4z m-1297 -64 l0
-70 -34 39 c-21 25 -53 47 -86 60 -60 23 -32 29 32 6 47 -16 67 -12 76 16 4
10 8 19 9 19 2 0 3 -32 3 -70z m613 45 c0 -16 -27 -32 -36 -22 -7 6 17 36 29
37 4 0 7 -7 7 -15z m-176 -89 c-35 -30 -94 -116 -79 -116 3 0 20 16 37 36 30
34 76 64 98 64 21 0 9 -18 -30 -45 -36 -25 -80 -80 -80 -101 0 -4 12 4 28 18
35 33 93 68 112 68 9 -1 3 -9 -15 -23 -53 -39 -108 -91 -125 -120 l-17 -27
-18 20 c-30 33 -25 82 19 172 19 39 37 61 59 72 50 25 54 19 11 -18z m-784 7
c-1 -10 -50 -46 -50 -37 0 11 32 44 42 44 4 0 8 -3 8 -7z m240 2 c0 -5 -48
-77 -57 -85 -6 -6 6 70 13 82 5 8 44 11 44 3z m840 -5 c0 -5 -10 -10 -22 -10
-19 0 -20 2 -8 10 19 13 30 13 30 0z m-555 -87 c-9 -48 -21 -63 -53 -63 l-26
0 26 28 c14 15 31 37 37 50 17 33 24 27 16 -15z m64 -59 c-6 -8 -19 -14 -29
-14 -16 0 -16 3 -2 46 l15 46 14 -32 c10 -25 10 -36 2 -46z m-231 -13 c43 -45
48 -71 14 -71 -12 0 -28 21 -50 65 -30 62 -44 112 -19 70 7 -11 31 -40 55 -64z
m-280 -27 c15 -12 13 -14 -16 -25 -19 -6 -42 -26 -53 -43 -10 -17 -19 -28 -19
-25 0 10 20 70 43 128 l22 55 3 -39 c2 -22 11 -44 20 -51z m1183 61 c16 -9 54
-38 83 -64 30 -27 71 -54 92 -61 22 -7 53 -23 71 -36 38 -29 45 -30 41 -6 -2
12 5 18 22 20 41 6 44 19 8 32 l-33 13 53 9 c30 6 56 8 58 5 9 -8 -37 -90 -63
-114 -13 -13 -34 -23 -47 -23 -31 0 -76 -46 -77 -79 0 -20 -8 -11 -35 44 -19
38 -39 74 -43 78 -11 11 -131 37 -131 28 0 -3 16 -19 35 -34 19 -15 42 -42 51
-60 20 -40 52 -66 82 -67 12 0 22 -4 22 -10 0 -5 -7 -10 -15 -10 -8 0 -29 -13
-48 -30 l-34 -29 -43 84 c-52 104 -140 211 -199 242 -52 27 -133 31 -186 8
-20 -8 -68 -37 -109 -65 -58 -41 -79 -51 -106 -48 -43 4 -53 28 -12 28 24 0
39 10 67 44 19 24 54 56 77 72 37 26 52 30 147 35 203 11 241 10 272 -6z
m-735 -100 c19 -14 19 -14 -2 -15 -12 0 -27 7 -34 15 -17 20 9 21 36 0z m31
-40 l-58 -53 15 -30 c27 -52 87 -59 111 -12 19 38 45 40 45 4 0 -17 12 -38 35
-60 l35 -33 -27 -49 -27 -49 18 -41 c22 -49 75 -105 132 -138 23 -14 44 -33
47 -44 5 -18 -69 -150 -84 -150 -9 0 -19 55 -19 107 0 54 -16 49 -25 -9 l-7
-41 -32 69 c-18 38 -40 75 -48 82 -14 11 -15 9 -7 -25 19 -83 11 -90 -31 -25
-47 73 -68 81 -40 16 26 -60 25 -63 -7 -32 -32 30 -72 52 -80 44 -3 -3 4 -17
16 -32 12 -15 19 -29 17 -31 -2 -3 -22 5 -45 17 -48 24 -53 15 -11 -25 39 -37
31 -43 -20 -14 -73 41 -91 116 -44 180 72 96 80 147 33 215 l-31 45 26 24 c19
17 26 34 26 59 0 34 1 35 29 30 22 -5 35 0 62 25 19 17 39 30 44 30 6 0 -16
-24 -48 -54z m-132 -24 c-8 -13 -35 -15 -35 -2 0 5 8 11 18 13 21 5 26 2 17
-11z m545 -22 c-18 -25 -34 -65 -41 -102 -13 -64 -43 -107 -75 -107 -16 0 -15
3 3 23 12 12 26 46 32 75 14 67 33 104 67 131 41 33 47 25 14 -20z m264 -74
c9 -18 16 -41 16 -51 0 -16 -2 -16 -22 2 -21 19 -21 19 -15 -4 4 -19 3 -21 -8
-12 -8 7 -19 9 -25 5 -12 -7 -13 13 -4 79 6 44 8 46 25 30 10 -9 25 -31 33
-49z m-946 -161 c29 -20 28 -34 -8 -79 -36 -46 -34 -59 25 -135 53 -70 61 -85
70 -139 8 -50 -5 -49 -32 2 -9 18 -37 55 -63 84 -26 28 -55 68 -65 89 -16 35
-17 41 -1 89 9 29 16 61 16 72 0 36 22 43 58 17z m832 -74 c38 -75 23 -116
-82 -217 -35 -33 -73 -72 -85 -87 -12 -14 -31 -26 -43 -26 -23 0 -16 13 92
156 21 28 38 58 38 67 0 9 -18 26 -40 38 -38 22 -55 43 -45 58 2 4 28 13 57
20 29 6 60 16 68 21 8 5 16 10 17 10 2 0 12 -18 23 -40z"/>
<path d="M1725 2769 c-10 -15 3 -25 16 -12 7 7 7 13 1 17 -6 3 -14 1 -17 -5z"/>
<path d="M2130 2349 c0 -5 7 -9 14 -9 8 0 45 -23 81 -50 36 -28 80 -57 98 -66
l31 -17 -18 29 c-28 44 -58 74 -89 90 -35 19 -117 34 -117 23z"/>
<path d="M1940 1203 c-132 -69 -88 -263 60 -263 44 0 98 27 124 62 25 34 26
116 2 153 -38 57 -125 80 -186 48z m101 -56 c43 -33 50 -87 14 -122 -48 -49
-125 -17 -125 52 0 61 67 104 111 70z"/>
<path d="M622 1083 l3 -128 113 -3 112 -3 0 25 c0 24 -2 25 -77 28 -77 3 -78
3 -81 31 l-3 27 66 0 c63 0 66 1 63 23 -3 20 -9 22 -65 25 -59 3 -63 4 -63 27
0 24 2 25 75 25 73 0 75 1 75 25 l0 25 -110 0 -111 0 3 -127z"/>
<path d="M970 1081 l0 -131 91 0 c90 0 91 0 125 34 31 31 34 39 34 95 0 53 -4
65 -29 93 -29 32 -31 33 -125 36 l-96 4 0 -131z m164 53 c55 -55 14 -134 -70
-134 -23 0 -24 2 -24 75 l0 75 39 0 c23 0 46 -7 55 -16z"/>
<path d="M1350 1080 l0 -130 30 0 30 0 0 130 0 130 -30 0 -30 0 0 -130z"/>
<path d="M1530 1180 c0 -28 2 -30 40 -30 l40 0 0 -100 0 -100 35 0 35 0 0 100
0 100 45 0 c43 0 45 1 45 30 l0 30 -120 0 -120 0 0 -30z"/>
<path d="M2270 1080 l0 -130 35 0 c34 0 35 1 35 40 0 33 3 40 20 40 12 0 30
-16 46 -40 22 -34 32 -40 60 -40 19 0 34 3 34 6 0 3 -11 20 -25 38 -14 18 -25
36 -25 39 0 3 11 17 25 31 27 27 32 64 13 99 -21 40 -40 46 -130 47 l-88 0 0
-130z m158 43 c3 -22 -20 -41 -45 -37 -7 1 -20 2 -28 3 -10 1 -15 12 -15 32 0
29 1 30 43 27 34 -2 43 -7 45 -25z"/>
<path d="M2700 1188 c-29 -69 -90 -223 -90 -230 0 -4 13 -8 29 -8 21 0 32 6
36 20 5 17 15 20 65 20 50 0 60 -3 65 -20 4 -14 15 -20 36 -20 16 0 29 4 29 8
0 4 -22 62 -49 128 -47 113 -51 119 -80 122 -24 3 -33 -2 -41 -20z m53 -85 c2
-10 8 -26 12 -35 6 -15 2 -18 -24 -18 -17 0 -31 2 -31 4 0 1 5 17 11 35 12 35
24 40 32 14z"/>
<path d="M343 865 c-55 -24 -64 -56 -65 -237 0 -144 2 -163 19 -187 28 -36 60
-51 116 -51 42 0 54 5 83 34 31 31 34 40 34 90 l0 56 -40 0 -40 0 0 -43 c0
-46 -13 -67 -41 -67 -39 0 -49 37 -49 177 0 119 2 135 20 153 34 34 70 9 70
-47 0 -32 2 -33 40 -33 l40 0 0 40 c0 102 -90 157 -187 115z"/>
<path d="M653 866 c-61 -28 -68 -51 -68 -232 0 -176 7 -204 57 -230 33 -17
108 -18 142 -2 52 23 61 51 64 208 4 162 -6 211 -49 243 -34 25 -105 31 -146
13z m98 -93 c6 -16 9 -84 7 -161 -2 -105 -6 -135 -18 -142 -22 -14 -36 -12
-54 6 -13 12 -16 41 -16 150 0 75 5 144 10 155 16 30 58 25 71 -8z"/>
<path d="M897 633 l2 -238 43 -3 44 -3 -4 138 c-3 88 -1 134 6 128 5 -5 22
-59 37 -120 27 -107 43 -151 50 -143 2 2 20 61 39 132 19 70 37 131 41 134 4
4 5 -54 3 -129 l-3 -136 45 -2 45 -1 0 240 0 240 -57 0 -57 0 -10 -37 c-5 -21
-18 -70 -27 -110 -9 -40 -21 -70 -25 -68 -4 3 -12 29 -19 57 -6 29 -18 76 -26
105 l-15 53 -57 0 -57 0 2 -237z"/>
<path d="M1297 633 l2 -238 69 -3 c134 -6 187 35 186 140 -1 53 -4 64 -27 84
l-27 23 25 25 c44 44 29 167 -24 196 -11 5 -62 10 -113 10 l-93 0 2 -237z
m164 140 c18 -49 -8 -103 -50 -103 -7 0 -11 26 -11 65 0 63 1 65 25 65 18 0
28 -7 36 -27z m-7 -189 c16 -16 21 -80 8 -101 -4 -6 -20 -15 -35 -18 l-27 -7
0 71 c0 63 2 71 19 71 11 0 27 -7 35 -16z"/>
<path d="M1646 838 c-3 -18 -19 -118 -35 -223 -16 -104 -30 -196 -32 -204 -3
-11 8 -15 44 -17 46 -2 48 -1 46 25 -5 66 -2 72 39 69 37 -3 37 -3 40 -50 l3
-48 51 0 c47 0 50 1 44 23 -6 21 -76 434 -76 450 0 4 -26 7 -59 7 -58 0 -59 0
-65 -32z m77 -191 l14 -87 -29 0 c-29 0 -30 2 -25 33 3 17 9 58 13 90 3 32 8
56 10 54 2 -1 10 -42 17 -90z"/>
<path d="M1850 825 c0 -42 2 -45 19 -35 11 5 32 10 46 10 l26 0 -2 -202 -2
-203 49 0 c44 0 48 2 44 20 -3 11 -5 101 -5 200 l0 180 30 -1 c17 0 38 -4 48
-8 15 -7 17 -2 17 38 l0 46 -135 0 -135 0 0 -45z"/>
<path d="M2155 629 l0 -240 105 3 105 3 3 41 3 40 -61 -4 -60 -4 0 72 0 73 45
-6 45 -7 0 40 0 40 -45 0 -45 0 0 61 0 61 43 -4 c23 -3 50 -8 60 -12 15 -7 17
-2 17 38 l0 46 -107 0 -108 0 0 -241z"/>
<path d="M2417 633 l2 -238 42 0 42 0 -1 145 -1 145 47 -135 c26 -75 51 -141
55 -147 10 -15 77 -14 83 1 2 6 5 113 6 239 l3 227 -45 0 -45 0 2 -127 c2 -71
0 -121 -4 -113 -4 8 -23 65 -43 125 l-36 110 -54 3 -55 3 2 -238z"/>
<path d="M2730 825 c0 -42 2 -45 19 -35 11 5 31 10 46 10 l26 0 -2 -202 -1
-203 47 0 47 0 -2 203 c-1 199 0 202 20 202 12 0 30 -5 41 -10 17 -10 19 -7
19 35 l0 45 -130 0 -130 0 0 -45z"/>
<path d="M3035 629 l0 -240 89 2 c122 3 126 4 126 48 l0 37 -65 -4 -66 -4 3
68 3 69 48 -2 47 -3 0 40 0 40 -50 0 -51 0 3 58 3 57 37 3 c20 2 46 -2 58 -8
19 -10 20 -8 20 35 l0 45 -102 0 -103 0 0 -241z"/>
</g>
</svg>
