<svg width="1261" height="1588" viewBox="0 0 1261 1588" fill="none" xmlns="http://www.w3.org/2000/svg">
<path d="M615.061 25.0088C799.384 25.6571 989.39 62.9429 1236 136.095V654.504C1236 1029.05 1021.45 1370.48 683.99 1532.97L627.386 1560.23L573.551 1534.04C237.982 1370.83 25 1030.4 25 657.249V135.451C251.252 60.2008 431.115 24.3618 615.061 25.0088Z" fill="white" stroke="black" stroke-width="50"/>
<path d="M616.885 108.008C778.318 108.585 944.838 141.693 1161 206.803V683.035C1161 1009.83 974.948 1308.11 681.462 1451.84L627.764 1478.14L576.479 1452.77C284.67 1308.41 100 1011.03 100 685.47V206.155C298.237 139.234 455.829 107.432 616.885 108.008Z" fill="#F32121" stroke="black" stroke-width="50"/>
<mask id="path-3-outside-1_64_2" maskUnits="userSpaceOnUse" x="262" y="356" width="736" height="756" fill="black">
<rect fill="white" x="262" y="356" width="736" height="756"/>
<path d="M685.593 476.104V670.575H871.396L953 549.751V890.197L878.168 779.399H685.593V991.43L810.163 1066.54H449.837L570.414 993.837V779.399H381.831L307 890.197V549.75L388.604 670.575H570.414V473.698L449.837 401H810.162L685.593 476.104Z"/>
</mask>
<path d="M685.593 476.104V670.575H871.396L953 549.751V890.197L878.168 779.399H685.593V991.43L810.163 1066.54H449.837L570.414 993.837V779.399H381.831L307 890.197V549.75L388.604 670.575H570.414V473.698L449.837 401H810.162L685.593 476.104Z" fill="white"/>
<path d="M685.593 476.104L662.589 437.951L641.041 450.943V476.104H685.593ZM685.593 670.575H641.041V715.127H685.593V670.575ZM871.396 670.575V715.127H895.068L908.316 695.511L871.396 670.575ZM953 549.751H997.552V404.187L916.08 524.816L953 549.751ZM953 890.197L916.08 915.133L997.552 1035.76V890.197H953ZM878.168 779.399L915.088 754.464L901.839 734.848H878.168V779.399ZM685.593 779.399V734.848H641.041V779.399H685.593ZM685.593 991.43H641.041V1016.59L662.589 1029.58L685.593 991.43ZM810.163 1066.54V1111.09H970.342L833.167 1028.38L810.163 1066.54ZM449.837 1066.54L426.833 1028.38L289.659 1111.09H449.837V1066.54ZM570.414 993.837L593.418 1031.99L614.966 1019V993.837H570.414ZM570.414 779.399H614.966V734.848H570.414V779.399ZM381.831 779.399V734.848H358.16L344.911 754.464L381.831 779.399ZM307 890.197H262.448V1035.76L343.92 915.132L307 890.197ZM307 549.75L343.92 524.815L262.448 404.185V549.75H307ZM388.604 670.575L351.683 695.51L364.932 715.127H388.604V670.575ZM570.414 670.575V715.127H614.966V670.575H570.414ZM570.414 473.698H614.966V448.537L593.418 435.545L570.414 473.698ZM449.837 401V356.448H289.659L426.833 439.154L449.837 401ZM810.162 401L833.165 439.154L970.342 356.448H810.162V401ZM685.593 476.104H641.041V670.575H685.593H730.144V476.104H685.593ZM685.593 670.575V715.127H871.396V670.575V626.023H685.593V670.575ZM871.396 670.575L908.316 695.511L989.92 574.686L953 549.751L916.08 524.816L834.477 645.64L871.396 670.575ZM953 549.751H908.448V890.197H953H997.552V549.751H953ZM953 890.197L989.92 865.262L915.088 754.464L878.168 779.399L841.248 804.335L916.08 915.133L953 890.197ZM878.168 779.399V734.848H685.593V779.399V823.951H878.168V779.399ZM685.593 779.399H641.041V991.43H685.593H730.144V779.399H685.593ZM685.593 991.43L662.589 1029.58L787.16 1104.69L810.163 1066.54L833.167 1028.38L708.596 953.276L685.593 991.43ZM810.163 1066.54V1021.98H449.837V1066.54V1111.09H810.163V1066.54ZM449.837 1066.54L472.84 1104.69L593.418 1031.99L570.414 993.837L547.411 955.683L426.833 1028.38L449.837 1066.54ZM570.414 993.837H614.966V779.399H570.414H525.862V993.837H570.414ZM570.414 779.399V734.848H381.831V779.399V823.951H570.414V779.399ZM381.831 779.399L344.911 754.464L270.08 865.262L307 890.197L343.92 915.132L418.751 804.335L381.831 779.399ZM307 890.197H351.552V549.75H307H262.448V890.197H307ZM307 549.75L270.08 574.685L351.683 695.51L388.604 670.575L425.524 645.64L343.92 524.815L307 549.75ZM388.604 670.575V715.127H570.414V670.575V626.023H388.604V670.575ZM570.414 670.575H614.966V473.698H570.414H525.862V670.575H570.414ZM570.414 473.698L593.418 435.545L472.84 362.846L449.837 401L426.833 439.154L547.411 511.852L570.414 473.698ZM449.837 401V445.552H810.162V401V356.448H449.837V401ZM810.162 401L787.159 362.846L662.589 437.951L685.593 476.104L708.596 514.258L833.165 439.154L810.162 401Z" fill="black" mask="url(#path-3-outside-1_64_2)"/>
</svg>
