<svg xmlns="http://www.w3.org/2000/svg" xmlns:xlink="http://www.w3.org/1999/xlink" width="917" zoomAndPan="magnify" viewBox="0 0 687.75 477.749988" height="637" preserveAspectRatio="xMidYMid meet" version="1.0"><defs><clipPath id="ac1cea976a"><path d="M 0.0546875 0 L 687.445312 0 L 687.445312 477.5 L 0.0546875 477.5 Z M 0.0546875 0 " clip-rule="nonzero"/></clipPath><clipPath id="ddac219d87"><path d="M 343.75 0 L 687.445312 0 L 687.445312 477.5 L 343.75 477.5 Z M 343.75 0 " clip-rule="nonzero"/></clipPath><clipPath id="0d627df8bb"><path d="M 0.75 0 L 344.445312 0 L 344.445312 477.5 L 0.75 477.5 Z M 0.75 0 " clip-rule="nonzero"/></clipPath><clipPath id="f44494d5e9"><rect x="0" width="345" y="0" height="478"/></clipPath><clipPath id="dec863e9f2"><path d="M 343.75 306 L 522 306 L 522 348.054688 L 343.75 348.054688 Z M 343.75 306 " clip-rule="nonzero"/></clipPath><clipPath id="1e04fa85ac"><path d="M 343.75 167 L 554 167 L 554 314 L 343.75 314 Z M 343.75 167 " clip-rule="nonzero"/></clipPath><clipPath id="23d96b28b0"><path d="M 343.75 129.167969 L 357 129.167969 L 357 182 L 343.75 182 Z M 343.75 129.167969 " clip-rule="nonzero"/></clipPath><clipPath id="dc9570b54c"><path d="M 167 306 L 343.5 306 L 343.5 348.054688 L 167 348.054688 Z M 167 306 " clip-rule="nonzero"/></clipPath><clipPath id="5431c176aa"><path d="M 135 167 L 343.5 167 L 343.5 314 L 135 314 Z M 135 167 " clip-rule="nonzero"/></clipPath><clipPath id="96892f5a88"><path d="M 332 129.167969 L 343.5 129.167969 L 343.5 182 L 332 182 Z M 332 129.167969 " clip-rule="nonzero"/></clipPath></defs><g clip-path="url(#ac1cea976a)"><path fill="#ffffff" d="M 0.0546875 0 L 687.445312 0 L 687.445312 477.5 L 0.0546875 477.5 Z M 0.0546875 0 " fill-opacity="1" fill-rule="nonzero"/><path fill="#000000" d="M 0.0546875 0 L 687.445312 0 L 687.445312 477.5 L 0.0546875 477.5 Z M 0.0546875 0 " fill-opacity="1" fill-rule="nonzero"/></g><g clip-path="url(#ddac219d87)"><g transform="matrix(1, 0, 0, 1, 343, 0)"><g clip-path="url(#f44494d5e9)"><g clip-path="url(#0d627df8bb)"><path fill="#fdc902" d="M 0.75 -20.941406 L 344.445312 -20.941406 L 344.445312 498.628906 L 0.75 498.628906 Z M 0.75 -20.941406 " fill-opacity="1" fill-rule="nonzero"/></g></g></g></g><g clip-path="url(#dec863e9f2)"><path fill="#000000" d="M 344.585938 306.394531 C 344.410156 306.394531 344.234375 306.390625 344.058594 306.390625 C 251.976562 306.558594 188.664062 313.683594 167.683594 325.640625 C 188.703125 337.535156 251.992188 347.5 344.058594 348.039062 C 344.234375 348.039062 344.410156 348.035156 344.585938 348.035156 C 344.765625 348.035156 344.9375 348.039062 345.113281 348.039062 C 437.183594 347.5 500.472656 337.535156 521.488281 325.640625 C 500.507812 313.683594 437.195312 306.558594 345.113281 306.390625 C 344.9375 306.390625 344.765625 306.394531 344.585938 306.394531 " fill-opacity="1" fill-rule="nonzero"/></g><g clip-path="url(#1e04fa85ac)"><path fill="#000000" d="M 551.039062 216.257812 C 537.175781 225.433594 521.117188 243.410156 492.136719 238.621094 C 457.234375 232.859375 458.808594 179.207031 458.808594 179.207031 C 458.808594 179.207031 445.953125 226.957031 398.171875 220.011719 C 349.0625 212.867188 346.5 167.21875 345.113281 167.203125 C 344.9375 167.203125 344.765625 167.210938 344.585938 167.210938 C 344.410156 167.210938 344.234375 167.203125 344.058594 167.203125 C 342.675781 167.21875 340.347656 214.742188 291 220.011719 C 250.183594 224.367188 230.367188 179.207031 230.367188 179.207031 C 230.367188 179.207031 231.941406 232.859375 197.035156 238.621094 C 168.054688 243.410156 151.996094 225.433594 138.132812 216.257812 C 137.050781 217.035156 137.058594 217.039062 136.027344 217.828125 C 144.445312 227.859375 151.601562 243.261719 157.707031 260.425781 C 157.71875 260.457031 157.726562 260.488281 157.738281 260.523438 C 158.210938 261.636719 158.597656 262.589844 158.839844 263.277344 C 159.132812 264.09375 159.378906 265.03125 159.585938 266.074219 C 165.242188 283.878906 167.402344 300.648438 166.164062 313.144531 C 190.355469 302.195312 260.765625 294.257812 344.058594 294.1875 C 344.234375 294.1875 344.410156 294.1875 344.585938 294.191406 C 344.765625 294.1875 344.9375 294.1875 345.113281 294.1875 C 428.40625 294.257812 498.820312 302.195312 523.007812 313.144531 C 521.769531 300.648438 523.929688 283.878906 529.585938 266.074219 C 529.792969 265.03125 530.042969 264.09375 530.332031 263.277344 C 530.574219 262.589844 530.964844 261.636719 531.433594 260.523438 C 531.445312 260.488281 531.453125 260.457031 531.472656 260.425781 C 537.570312 243.261719 545.191406 228.171875 553.613281 218.140625 C 552.582031 217.347656 552.121094 217.035156 551.039062 216.257812 " fill-opacity="1" fill-rule="nonzero"/></g><path fill="#000000" d="M 360.664062 200.148438 C 369.851562 205.320312 383.277344 206.140625 392.15625 201.164062 C 396.09375 198.933594 399.222656 196.269531 401.296875 193.34375 C 401.320312 193.214844 401.335938 193.089844 401.351562 192.96875 C 401.375 193.03125 401.40625 193.09375 401.429688 193.160156 C 401.472656 193.101562 401.519531 193.042969 401.5625 192.984375 C 401.546875 193.105469 401.523438 193.230469 401.507812 193.359375 C 402.722656 196.554688 405.050781 199.660156 408.289062 202.472656 C 415.59375 208.777344 428.996094 210.140625 439.480469 206.582031 C 441.984375 205.71875 444.167969 204.3125 445.859375 202.605469 C 444.230469 208.992188 442.597656 215.378906 440.96875 221.765625 C 440.304688 219.675781 439.027344 217.710938 437.160156 216.183594 C 429.351562 209.746094 415.515625 207.804688 406.65625 212.632812 C 402.714844 214.761719 399.683594 217.421875 397.71875 220.359375 C 397.699219 220.480469 397.683594 220.605469 397.667969 220.734375 C 397.644531 220.671875 397.617188 220.601562 397.59375 220.535156 C 397.554688 220.597656 397.507812 220.660156 397.46875 220.71875 C 397.488281 220.59375 397.503906 220.464844 397.523438 220.339844 C 396.414062 217.152344 394.191406 214.0625 390.929688 211.355469 C 383.621094 205.203125 369.617188 204.875 360.265625 209.90625 C 358.03125 211.101562 356.253906 212.8125 355.035156 214.75 C 355.21875 208.246094 355.398438 201.738281 355.578125 195.234375 C 356.746094 197.175781 358.476562 198.910156 360.664062 200.148438 " fill-opacity="1" fill-rule="nonzero"/><path fill="#000000" d="M 464.125 212.339844 C 470.207031 218.957031 480.808594 222.582031 489.230469 220.035156 C 492.96875 218.886719 496.171875 217.175781 498.585938 214.996094 C 498.632812 214.886719 498.679688 214.777344 498.722656 214.667969 C 498.722656 214.730469 498.730469 214.792969 498.734375 214.859375 C 498.785156 214.820312 498.839844 214.777344 498.882812 214.726562 C 498.839844 214.835938 498.792969 214.945312 498.75 215.054688 C 498.921875 218.1875 500.011719 221.488281 501.917969 224.71875 C 506.222656 231.96875 516.714844 236.125 526.105469 235.238281 C 528.347656 235.019531 530.472656 234.234375 532.273438 233.074219 C 529.339844 238.453125 526.410156 243.832031 523.480469 249.214844 C 523.46875 247.191406 522.929688 245.140625 521.804688 243.359375 C 517.101562 235.851562 506.40625 231.078125 498.035156 233.488281 C 494.316406 234.539062 491.191406 236.269531 488.867188 238.480469 C 488.820312 238.59375 488.769531 238.699219 488.726562 238.808594 C 488.726562 238.746094 488.71875 238.679688 488.714844 238.617188 C 488.671875 238.664062 488.617188 238.707031 488.570312 238.753906 C 488.617188 238.640625 488.664062 238.535156 488.710938 238.421875 C 488.621094 235.320312 487.609375 232.0625 485.667969 228.925781 C 481.324219 221.816406 470.128906 218.503906 461.335938 221.019531 C 459.238281 221.605469 457.375 222.761719 455.90625 224.238281 C 457.695312 218.4375 459.488281 212.636719 461.277344 206.832031 C 461.726562 208.824219 462.683594 210.753906 464.125 212.339844 " fill-opacity="1" fill-rule="nonzero"/><g clip-path="url(#23d96b28b0)"><path fill="#000000" d="M 342.0625 179.78125 C 341.765625 180.148438 342.160156 181.566406 341.796875 181.890625 L 349.132812 180.574219 C 349.023438 180.460938 348.878906 180.375 348.777344 180.253906 C 344.367188 175.210938 344.207031 167.757812 349.128906 163.398438 C 351.347656 161.417969 353.9375 159.945312 356.671875 159.09375 C 356.566406 159.054688 356.476562 158.992188 356.375 158.957031 L 344.332031 129.117188 L 332.675781 158.957031 C 335.085938 159.769531 337.375 161.046875 339.417969 162.71875 C 344.523438 166.949219 346.242188 174.601562 342.0625 179.78125 " fill-opacity="1" fill-rule="nonzero"/></g><path fill="#000000" d="M 459.214844 191.09375 C 459.378906 191.515625 456.324219 192.289062 456.558594 192.6875 L 454.300781 190.832031 C 454.417969 190.746094 454.179688 190.921875 454.300781 190.832031 C 459.398438 186.960938 459.085938 178.84375 455.964844 173.5 C 454.558594 171.078125 452.699219 169.0625 450.5625 167.609375 C 450.664062 167.597656 450.757812 167.558594 450.859375 167.546875 L 468.933594 141.472656 L 471.296875 172.980469 C 469.007812 173.210938 466.703125 173.921875 464.511719 175.070312 C 459.019531 177.988281 456.949219 185.132812 459.214844 191.09375 " fill-opacity="1" fill-rule="nonzero"/><path fill="#000000" d="M 544.925781 226.945312 C 544.789062 227.300781 544.71875 227.664062 544.640625 228.027344 L 540.820312 223.621094 C 540.941406 223.605469 541.0625 223.617188 541.179688 223.589844 C 546.425781 222.582031 551.65625 218.191406 552.734375 213.332031 C 553.230469 211.136719 553.226562 209.074219 552.734375 207.316406 C 552.800781 207.335938 552.882812 207.34375 552.949219 207.371094 L 578.398438 194.992188 L 562.320312 218.179688 C 560.800781 217.566406 559.007812 217.289062 557.042969 217.359375 C 552.09375 217.5625 546.863281 221.933594 544.925781 226.945312 " fill-opacity="1" fill-rule="nonzero"/><g clip-path="url(#dc9570b54c)"><path fill="#fdc902" d="M 344.445312 306.613281 C 344.269531 306.613281 344.09375 306.609375 343.917969 306.609375 C 251.882812 306.777344 188.601562 313.910156 167.632812 325.882812 C 188.636719 337.792969 251.894531 347.769531 343.917969 348.308594 C 344.09375 348.308594 344.269531 348.304688 344.445312 348.304688 C 344.625 348.304688 344.796875 348.308594 344.972656 348.308594 C 436.996094 347.769531 500.253906 337.792969 521.261719 325.882812 C 500.289062 313.910156 437.007812 306.777344 344.972656 306.609375 C 344.796875 306.609375 344.625 306.613281 344.445312 306.613281 " fill-opacity="1" fill-rule="nonzero"/></g><g clip-path="url(#5431c176aa)"><path fill="#fdc902" d="M 550.796875 216.367188 C 536.941406 225.554688 520.886719 243.550781 491.921875 238.757812 C 457.035156 232.988281 458.609375 179.269531 458.609375 179.269531 C 458.609375 179.269531 445.761719 227.078125 398.003906 220.125 C 348.917969 212.972656 346.359375 167.265625 344.972656 167.25 C 344.796875 167.25 344.625 167.253906 344.445312 167.253906 C 344.269531 167.253906 344.09375 167.25 343.917969 167.25 C 342.539062 167.265625 340.207031 214.847656 290.882812 220.125 C 250.089844 224.484375 230.28125 179.269531 230.28125 179.269531 C 230.28125 179.269531 231.855469 232.988281 196.96875 238.757812 C 168.003906 243.550781 151.949219 225.554688 138.097656 216.367188 C 137.015625 217.140625 137.023438 217.144531 135.988281 217.9375 C 144.40625 227.980469 151.558594 243.402344 157.65625 260.585938 C 157.671875 260.617188 157.679688 260.652344 157.691406 260.683594 C 158.160156 261.800781 158.550781 262.753906 158.792969 263.441406 C 159.082031 264.261719 159.332031 265.199219 159.535156 266.242188 C 165.191406 284.070312 167.351562 300.859375 166.113281 313.371094 C 190.289062 302.40625 260.667969 294.460938 343.917969 294.390625 C 344.09375 294.390625 344.269531 294.390625 344.445312 294.394531 C 344.625 294.390625 344.796875 294.390625 344.972656 294.390625 C 428.222656 294.460938 498.601562 302.40625 522.78125 313.371094 C 521.539062 300.859375 523.699219 284.070312 529.355469 266.242188 C 529.5625 265.199219 529.808594 264.261719 530.097656 263.441406 C 530.339844 262.753906 530.730469 261.800781 531.199219 260.683594 C 531.210938 260.652344 531.222656 260.617188 531.238281 260.585938 C 537.332031 243.402344 544.953125 228.292969 553.367188 218.25 C 552.335938 217.457031 551.878906 217.140625 550.796875 216.367188 " fill-opacity="1" fill-rule="nonzero"/></g><path fill="#fdc902" d="M 328.359375 199.84375 C 319.449219 205 306.410156 205.789062 297.773438 200.785156 C 293.941406 198.546875 290.890625 195.875 288.867188 192.9375 C 288.851562 192.808594 288.835938 192.6875 288.820312 192.558594 C 288.792969 192.628906 288.765625 192.691406 288.742188 192.757812 C 288.703125 192.695312 288.652344 192.636719 288.617188 192.574219 C 288.632812 192.703125 288.648438 192.828125 288.667969 192.949219 C 287.492188 196.152344 285.242188 199.257812 282.101562 202.066406 C 275.019531 208.355469 262 209.691406 251.804688 206.105469 C 249.378906 205.238281 247.25 203.824219 245.601562 202.113281 C 247.199219 208.507812 248.800781 214.902344 250.394531 221.300781 C 251.035156 219.210938 252.273438 217.246094 254.082031 215.726562 C 261.65625 209.296875 275.09375 207.382812 283.710938 212.234375 C 287.542969 214.375 290.496094 217.042969 292.414062 219.988281 C 292.429688 220.113281 292.445312 220.238281 292.460938 220.363281 C 292.480469 220.300781 292.511719 220.234375 292.53125 220.167969 C 292.570312 220.230469 292.613281 220.289062 292.652344 220.351562 C 292.636719 220.222656 292.617188 220.097656 292.597656 219.96875 C 293.667969 216.785156 295.824219 213.699219 298.980469 210.988281 C 306.070312 204.847656 319.675781 204.554688 328.769531 209.613281 C 330.941406 210.8125 332.671875 212.53125 333.859375 214.46875 C 333.671875 207.957031 333.480469 201.445312 333.292969 194.933594 C 332.160156 196.875 330.484375 198.605469 328.359375 199.84375 " fill-opacity="1" fill-rule="nonzero"/><path fill="#fdc902" d="M 224.96875 212.441406 C 218.890625 219.066406 208.292969 222.695312 199.875 220.148438 C 196.136719 218.996094 192.9375 217.28125 190.527344 215.101562 C 190.480469 214.992188 190.433594 214.882812 190.386719 214.769531 C 190.386719 214.835938 190.378906 214.898438 190.371094 214.964844 C 190.324219 214.925781 190.269531 214.882812 190.222656 214.832031 C 190.269531 214.941406 190.316406 215.050781 190.359375 215.160156 C 190.1875 218.296875 189.097656 221.601562 187.191406 224.835938 C 182.890625 232.09375 172.40625 236.257812 163.019531 235.371094 C 160.78125 235.152344 158.652344 234.363281 156.851562 233.203125 C 159.785156 238.585938 162.710938 243.972656 165.640625 249.359375 C 165.652344 247.335938 166.191406 245.285156 167.316406 243.5 C 172.015625 235.980469 182.707031 231.203125 191.078125 233.613281 C 194.796875 234.667969 197.914062 236.402344 200.242188 238.617188 C 200.289062 238.726562 200.332031 238.835938 200.378906 238.941406 C 200.378906 238.878906 200.382812 238.8125 200.386719 238.753906 C 200.433594 238.796875 200.488281 238.84375 200.53125 238.886719 C 200.488281 238.777344 200.441406 238.667969 200.394531 238.558594 C 200.480469 235.453125 201.492188 232.191406 203.433594 229.046875 C 207.773438 221.933594 218.964844 218.613281 227.753906 221.132812 C 229.851562 221.71875 231.714844 222.878906 233.179688 224.355469 C 231.394531 218.546875 229.601562 212.738281 227.8125 206.929688 C 227.363281 208.921875 226.414062 210.851562 224.96875 212.441406 " fill-opacity="1" fill-rule="nonzero"/><g clip-path="url(#96892f5a88)"><path fill="#fdc902" d="M 341.921875 179.84375 C 341.625 180.210938 342.019531 181.632812 341.65625 181.957031 L 348.988281 180.636719 C 348.878906 180.523438 348.734375 180.4375 348.632812 180.316406 C 344.226562 175.265625 344.066406 167.804688 348.984375 163.441406 C 351.203125 161.457031 353.789062 159.984375 356.523438 159.128906 C 356.421875 159.089844 356.332031 159.03125 356.226562 158.992188 L 344.191406 129.117188 L 332.539062 158.992188 C 334.953125 159.804688 337.238281 161.085938 339.28125 162.757812 C 344.382812 166.996094 346.101562 174.65625 341.921875 179.84375 " fill-opacity="1" fill-rule="nonzero"/></g><path fill="#fdc902" d="M 230.207031 183.824219 C 230.800781 183.679688 231.4375 183.59375 232.144531 183.59375 C 232.359375 183.59375 232.550781 183.636719 232.757812 183.652344 C 230.855469 179.996094 230.605469 175.648438 232.679688 172.082031 C 234.085938 169.660156 235.9375 167.640625 238.078125 166.1875 C 237.980469 166.171875 237.882812 166.136719 237.789062 166.125 L 219.71875 140.015625 L 217.355469 171.5625 C 219.644531 171.792969 221.949219 172.507812 224.136719 173.652344 C 227.886719 175.648438 229.964844 179.613281 230.207031 183.824219 " fill-opacity="1" fill-rule="nonzero"/><path fill="#fdc902" d="M 144.554688 227.066406 C 144.695312 227.421875 144.761719 227.785156 144.84375 228.148438 L 148.660156 223.738281 C 148.539062 223.71875 148.421875 223.734375 148.300781 223.707031 C 143.058594 222.695312 137.832031 218.300781 136.753906 213.4375 C 136.257812 211.238281 136.261719 209.171875 136.753906 207.414062 C 136.6875 207.433594 136.605469 207.441406 136.539062 207.464844 L 111.101562 195.074219 L 127.171875 218.289062 C 128.6875 217.675781 130.480469 217.398438 132.441406 217.46875 C 137.398438 217.671875 142.621094 222.046875 144.554688 227.066406 " fill-opacity="1" fill-rule="nonzero"/></svg>